Coordinates
version=1
nRows=21
nColumns=12
inDegrees=yes

Units are S.I. units (second, meters, Newtons, ...)
Angles are in degrees

endheader
time	SC_y	SC_z	SC_x	AC_y	AC_z	AC_x	GH_y	GH_z	GH_yy	EL_x	PS_y
       0.0              -33.54          3.088          33.91          61.79         -15.08         -1.428         -137.5          74.66         -96.96          66.96          103.0
   0.04978              -33.54          3.088          33.91          61.78         -15.08         -1.429         -137.5          74.65         -96.93          66.97          103.0
   0.09955              -33.54          3.089          33.92          61.78         -15.08          -1.43         -137.4          74.63          -96.9          66.97          103.0
    0.1493              -33.54          3.089          33.93          61.78         -15.07         -1.432         -137.4          74.62         -96.87          66.98          103.0
    0.1991              -33.54           3.09          33.94          61.77         -15.07         -1.433         -137.4          74.61         -96.84          66.99          102.9
    0.2489              -33.54          3.091          33.94          61.77         -15.07         -1.435         -137.3          74.59         -96.81           67.0          102.9
    0.2987              -33.54          3.091          33.95          61.76         -15.07         -1.437         -137.3          74.58         -96.77          67.01          102.9
    0.3484              -33.54          3.092          33.96          61.76         -15.07         -1.439         -137.2          74.56         -96.73          67.02          102.9
    0.3982              -33.54          3.093          33.98          61.75         -15.07         -1.441         -137.2          74.54         -96.69          67.03          102.9
     0.448              -33.54          3.094          33.99          61.75         -15.07         -1.443         -137.1          74.52         -96.64          67.04          102.9
    0.4978              -33.54          3.095           34.0          61.74         -15.07         -1.445         -137.1           74.5          -96.6          67.06          102.9
    0.5475              -33.53          3.096          34.01          61.74         -15.07         -1.448         -137.0          74.48         -96.54          67.07          102.8
    0.5973              -33.53          3.097          34.03          61.73         -15.07          -1.45         -136.9          74.45         -96.49          67.09          102.8
    0.6471              -33.53          3.098          34.04          61.72         -15.06         -1.453         -136.9          74.43         -96.43           67.1          102.8
    0.6969              -33.53          3.099          34.06          61.71         -15.06         -1.456         -136.8           74.4         -96.36          67.12          102.8
    0.7466              -33.53          3.101          34.08          61.71         -15.06          -1.46         -136.7          74.37         -96.29          67.14          102.7
    0.7964              -33.53          3.102           34.1           61.7         -15.06         -1.463         -136.6          74.34         -96.21          67.16          102.7
    0.8462              -33.53          3.104          34.12          61.69         -15.06         -1.468         -136.5           74.3         -96.13          67.19          102.7
     0.896              -33.53          3.106          34.15          61.68         -15.06         -1.472         -136.4          74.26         -96.04          67.21          102.6
    0.9457              -33.53          3.108          34.17          61.66         -15.05         -1.477         -136.3          74.22         -95.94          67.24          102.6
    0.9955              -33.52           3.11           34.2          61.65         -15.05         -1.482         -136.2          74.17         -95.83          67.27          102.6
